<svg id="svg" version="1.1" xmlns="http://www.w3.org/2000/svg" xmlns:xlink="http://www.w3.org/1999/xlink" width="400" height="238.66666666666666" viewBox="0, 0, 400,238.66666666666666"><g id="svgg"><path id="path0" d="M50.149 0.358 C 50.149 0.654,49.711 0.716,47.637 0.716 C 45.188 0.716,45.117 0.732,44.852 1.313 C 44.607 1.852,44.437 1.912,43.126 1.928 C 40.529 1.960,39.532 2.198,39.446 2.806 C 39.378 3.288,39.236 3.343,38.073 3.343 C 37.360 3.343,36.776 3.451,36.776 3.582 C 36.776 4.311,35.798 4.776,34.269 4.776 C 32.772 4.776,32.716 4.798,32.716 5.373 C 32.716 5.938,32.645 5.970,31.403 5.970 C 30.103 5.970,30.090 5.977,30.090 6.687 C 30.090 7.396,30.076 7.403,28.776 7.403 C 27.562 7.403,27.463 7.445,27.463 7.956 C 27.463 8.437,27.297 8.539,26.209 8.733 L 24.955 8.955 24.733 10.209 C 24.539 11.299,24.437 11.463,23.953 11.463 L 23.396 11.463 23.459 19.157 L 23.522 26.852 24.119 27.149 C 24.448 27.312,24.775 27.692,24.846 27.992 C 25.081 28.978,30.850 28.930,31.164 27.940 C 31.284 27.564,31.527 27.462,32.315 27.460 C 34.240 27.455,35.100 27.205,35.250 26.607 C 35.370 26.131,35.561 26.043,36.620 25.982 C 37.764 25.915,37.856 25.864,37.926 25.254 L 38.002 24.597 39.991 24.597 C 41.798 24.597,42.031 24.543,42.542 24.004 C 42.976 23.547,43.350 23.410,44.179 23.404 C 46.178 23.392,47.039 23.150,47.188 22.558 C 47.316 22.048,47.464 22.010,49.603 21.933 C 51.654 21.859,51.918 21.797,52.239 21.313 L 52.596 20.776 63.256 20.776 L 73.917 20.776 74.152 21.313 C 74.363 21.794,74.583 21.858,76.224 21.920 C 78.022 21.988,78.061 22.003,78.134 22.637 C 78.204 23.237,78.298 23.289,79.463 23.356 C 80.614 23.422,80.716 23.476,80.716 24.012 C 80.716 24.500,80.833 24.597,81.416 24.597 C 81.960 24.597,82.133 24.717,82.192 25.134 C 82.242 25.484,82.461 25.699,82.819 25.750 C 83.131 25.794,83.461 26.069,83.581 26.386 C 83.698 26.693,84.015 27.014,84.285 27.100 C 84.634 27.211,84.776 27.459,84.776 27.956 C 84.776 28.544,84.872 28.657,85.373 28.657 C 85.898 28.657,85.970 28.759,85.970 29.508 C 85.970 30.596,86.339 31.284,86.924 31.284 C 87.331 31.284,87.391 31.492,87.453 33.134 C 87.515 34.790,87.579 35.010,88.060 35.221 L 88.597 35.457 88.597 44.116 L 88.597 52.776 86.592 52.776 C 84.695 52.776,84.547 52.738,83.821 52.060 L 83.054 51.343 79.131 51.343 C 75.614 51.343,75.193 51.300,75.055 50.925 C 74.777 50.173,74.506 50.157,62.372 50.153 C 50.217 50.149,49.613 50.189,49.122 51.020 C 48.982 51.257,48.303 51.343,46.575 51.343 C 43.813 51.343,43.463 51.440,43.463 52.205 C 43.463 52.752,43.394 52.776,41.808 52.776 C 40.208 52.776,39.403 53.101,39.403 53.748 C 39.403 53.870,38.982 53.970,38.467 53.970 C 37.166 53.970,36.776 54.169,36.776 54.832 C 36.776 55.364,36.688 55.403,35.479 55.403 C 34.334 55.403,34.174 55.463,34.106 55.918 C 34.053 56.276,33.739 56.530,33.075 56.755 C 32.549 56.933,31.941 57.293,31.723 57.554 C 31.505 57.816,31.048 58.030,30.708 58.030 C 30.180 58.030,30.090 58.135,30.090 58.746 C 30.090 59.383,30.010 59.463,29.373 59.463 C 28.768 59.463,28.657 59.556,28.657 60.060 C 28.657 60.519,28.533 60.657,28.119 60.658 C 27.778 60.659,27.439 60.911,27.189 61.350 C 26.942 61.785,26.520 62.101,26.051 62.204 C 25.268 62.376,24.597 63.310,24.597 64.227 C 24.597 64.590,24.443 64.716,24.000 64.716 C 23.496 64.716,23.403 64.828,23.403 65.433 C 23.403 66.070,23.323 66.149,22.687 66.149 C 22.090 66.149,21.970 66.245,21.970 66.720 C 21.970 67.130,21.802 67.334,21.373 67.441 C 20.839 67.575,20.776 67.713,20.776 68.751 C 20.776 69.848,20.738 69.918,20.060 70.054 C 19.367 70.192,19.343 70.241,19.343 71.516 C 19.343 72.749,19.306 72.836,18.772 72.836 C 18.109 72.836,17.910 73.226,17.910 74.527 C 17.910 75.286,17.825 75.463,17.458 75.463 C 16.825 75.463,16.716 75.902,16.716 78.467 C 16.716 80.544,16.680 80.716,16.247 80.716 C 15.364 80.716,15.284 81.407,15.284 89.029 C 15.284 97.432,15.330 97.910,16.149 97.910 C 16.701 97.910,16.716 97.964,16.716 99.925 C 16.716 102.126,16.982 103.164,17.546 103.164 C 17.807 103.164,17.911 103.418,17.914 104.060 C 17.919 105.527,18.139 106.030,18.774 106.030 C 19.305 106.030,19.343 106.119,19.343 107.343 C 19.343 108.638,19.353 108.657,20.047 108.657 C 20.728 108.657,20.754 108.698,20.823 109.910 C 20.886 110.992,20.967 111.174,21.418 111.239 C 21.784 111.291,21.964 111.506,22.015 111.955 C 22.073 112.451,22.236 112.614,22.732 112.671 C 23.228 112.729,23.391 112.891,23.448 113.388 C 23.501 113.843,23.678 114.052,24.060 114.106 C 24.449 114.161,24.597 114.343,24.597 114.763 C 24.597 115.249,24.714 115.343,25.313 115.343 C 25.947 115.343,26.030 115.425,26.030 116.044 C 26.030 116.631,26.137 116.757,26.687 116.820 C 27.157 116.874,27.365 117.048,27.420 117.433 C 27.474 117.817,27.657 117.970,28.060 117.970 C 28.499 117.970,28.642 118.117,28.701 118.627 C 28.758 119.127,28.920 119.300,29.381 119.354 C 29.731 119.395,30.083 119.647,30.217 119.951 C 30.382 120.328,30.766 120.539,31.570 120.695 C 32.441 120.863,32.709 121.024,32.764 121.411 C 32.825 121.833,33.028 121.922,34.067 121.982 C 35.126 122.043,35.317 122.130,35.437 122.608 C 35.593 123.233,36.347 123.463,38.239 123.463 C 39.321 123.463,39.403 123.505,39.403 124.060 L 39.403 124.657 42.025 124.657 C 44.596 124.657,44.650 124.668,44.792 125.231 C 45.000 126.062,45.218 126.083,53.612 126.085 C 61.660 126.087,63.045 125.947,63.045 125.131 C 63.045 124.710,63.265 124.667,65.731 124.605 C 68.312 124.540,68.421 124.516,68.494 124.000 C 68.563 123.513,68.700 123.463,69.971 123.463 C 71.734 123.463,72.597 123.151,72.597 122.513 C 72.597 122.086,72.751 122.030,73.910 122.030 C 75.152 122.030,75.224 121.997,75.224 121.433 C 75.224 120.879,75.307 120.836,76.370 120.836 C 77.575 120.836,78.090 120.540,78.090 119.845 C 78.090 119.510,78.337 119.414,79.343 119.356 C 80.513 119.288,80.602 119.239,80.673 118.627 C 80.742 118.020,80.829 117.970,81.812 117.970 C 82.715 117.970,82.917 117.880,83.148 117.373 C 83.298 117.045,83.596 116.776,83.811 116.776 C 84.327 116.776,84.776 116.309,84.776 115.773 C 84.776 115.474,84.957 115.343,85.373 115.343 C 85.846 115.343,85.970 115.223,85.970 114.762 C 85.970 114.306,86.111 114.165,86.627 114.105 C 87.134 114.047,87.300 113.887,87.356 113.402 C 87.418 112.872,87.578 112.749,88.378 112.622 C 89.075 112.510,89.399 112.312,89.597 111.877 C 89.746 111.550,90.044 111.284,90.259 111.284 C 90.911 111.284,91.224 110.764,91.224 109.684 C 91.224 108.702,91.255 108.657,91.940 108.657 C 92.649 108.657,92.657 108.670,92.657 109.970 C 92.657 111.265,92.666 111.284,93.361 111.284 C 94.051 111.284,94.067 111.312,94.137 112.657 C 94.201 113.873,94.270 114.039,94.746 114.106 C 95.197 114.170,95.284 114.330,95.284 115.104 C 95.284 116.048,95.759 116.776,96.375 116.776 C 96.580 116.776,96.716 117.015,96.716 117.373 C 96.716 117.846,96.837 117.970,97.298 117.970 C 97.754 117.970,97.895 118.111,97.954 118.627 C 98.014 119.143,98.171 119.300,98.687 119.359 C 99.196 119.418,99.343 119.561,99.343 119.997 C 99.343 120.735,100.648 122.030,101.392 122.030 C 101.848 122.030,101.970 122.155,101.970 122.622 C 101.970 123.406,102.412 123.498,105.791 123.413 L 108.537 123.343 108.612 122.699 C 108.681 122.101,108.778 122.048,109.925 121.982 C 110.991 121.920,111.175 121.838,111.239 121.388 C 111.291 121.022,111.506 120.842,111.955 120.791 C 112.452 120.733,112.614 120.571,112.671 120.072 C 112.740 119.475,112.837 119.422,113.985 119.355 C 115.131 119.289,115.229 119.235,115.298 118.641 C 115.355 118.145,115.518 117.982,116.014 117.925 C 116.470 117.872,116.679 117.695,116.733 117.313 C 116.796 116.868,116.960 116.775,117.688 116.772 C 118.733 116.768,119.045 116.595,119.263 115.896 C 119.353 115.607,119.660 115.340,119.952 115.299 C 120.414 115.233,120.486 115.058,120.549 113.853 C 120.605 112.783,120.723 112.427,121.086 112.232 C 121.709 111.899,121.702 110.584,121.075 109.786 C 120.716 109.330,120.597 108.817,120.597 107.728 C 120.597 106.380,120.555 106.267,120.000 106.128 C 119.539 106.012,119.403 105.824,119.403 105.303 C 119.403 104.236,118.992 103.403,118.466 103.403 C 118.066 103.403,117.984 103.214,117.923 102.149 C 117.860 101.057,117.782 100.886,117.313 100.819 C 116.868 100.756,116.776 100.593,116.773 99.864 C 116.768 98.100,116.494 97.164,115.906 96.896 C 115.344 96.640,115.343 96.633,115.343 92.166 L 115.343 87.692 114.627 86.925 L 113.910 86.158 113.910 58.845 L 113.910 31.531 113.313 31.382 C 112.717 31.232,112.716 31.230,112.716 28.265 L 112.716 25.297 112.000 24.597 C 111.395 24.005,111.284 23.713,111.284 22.714 C 111.284 21.242,111.112 20.776,110.569 20.776 C 110.234 20.776,110.110 20.501,109.980 19.463 C 109.832 18.276,109.760 18.149,109.237 18.149 C 108.731 18.149,108.657 18.040,108.657 17.298 C 108.657 16.204,108.287 15.522,107.693 15.522 C 107.331 15.522,107.224 15.359,107.224 14.806 C 107.224 14.201,107.131 14.090,106.627 14.090 C 106.123 14.090,106.030 13.978,106.030 13.373 C 106.030 12.736,105.950 12.657,105.313 12.657 C 104.628 12.657,104.597 12.612,104.597 11.630 C 104.597 10.530,104.284 10.030,103.594 10.030 C 103.331 10.030,103.164 9.854,103.164 9.576 C 103.164 9.120,102.134 8.597,101.235 8.597 C 100.975 8.597,100.780 8.387,100.733 8.060 C 100.679 7.678,100.470 7.501,100.014 7.448 C 99.518 7.391,99.355 7.228,99.298 6.732 C 99.240 6.231,99.079 6.073,98.567 6.014 C 98.206 5.972,97.910 5.846,97.910 5.733 C 97.910 5.238,97.095 4.776,96.222 4.776 C 95.448 4.776,95.284 4.694,95.284 4.307 C 95.284 3.718,94.604 3.343,93.534 3.343 C 92.865 3.343,92.682 3.236,92.567 2.779 C 92.422 2.203,91.386 1.910,89.487 1.910 C 89.030 1.910,88.571 1.694,88.218 1.313 C 87.706 0.761,87.502 0.716,85.504 0.716 C 83.743 0.716,83.343 0.650,83.343 0.358 C 83.343 0.043,81.340 0.000,66.746 0.000 C 52.153 0.000,50.149 0.043,50.149 0.358 M324.776 0.349 C 324.776 0.620,324.342 0.712,322.806 0.766 C 320.969 0.831,320.831 0.872,320.760 1.373 C 320.698 1.806,320.530 1.910,319.897 1.910 C 317.983 1.910,316.892 2.199,316.756 2.742 C 316.654 3.147,316.363 3.320,315.506 3.485 C 314.609 3.659,314.373 3.808,314.312 4.239 C 314.251 4.668,314.082 4.776,313.473 4.776 C 312.911 4.776,312.648 4.918,312.475 5.313 C 312.295 5.723,311.984 5.879,311.164 5.970 C 310.204 6.077,310.081 6.160,310.014 6.746 C 309.955 7.262,309.814 7.403,309.357 7.403 C 308.897 7.403,308.776 7.527,308.776 8.000 C 308.776 8.486,308.659 8.597,308.145 8.597 C 307.759 8.597,307.255 8.868,306.846 9.296 C 306.479 9.681,305.876 10.030,305.507 10.072 C 304.976 10.133,304.820 10.286,304.760 10.806 C 304.706 11.277,304.550 11.463,304.211 11.463 C 303.898 11.463,303.651 11.707,303.487 12.179 C 303.349 12.573,303.090 12.896,302.910 12.896 C 302.472 12.896,302.090 13.659,302.090 14.536 C 302.090 15.139,301.986 15.264,301.433 15.327 C 300.921 15.386,300.760 15.545,300.702 16.045 C 300.650 16.493,300.471 16.709,300.107 16.761 C 299.821 16.802,299.566 16.997,299.541 17.194 C 299.305 19.023,299.190 19.315,298.679 19.387 C 298.220 19.453,298.140 19.630,298.077 20.716 C 298.017 21.767,297.931 21.970,297.548 21.970 C 296.881 21.970,296.597 22.697,296.597 24.405 C 296.597 25.744,296.535 25.944,296.060 26.152 L 295.522 26.388 295.456 34.149 C 295.383 42.552,295.408 42.879,296.120 43.105 C 296.518 43.231,296.597 43.466,296.597 44.524 C 296.597 46.612,296.808 47.284,297.463 47.284 C 297.991 47.284,298.030 47.374,298.030 48.597 C 298.030 49.820,298.069 49.910,298.597 49.910 C 299.177 49.910,299.463 50.584,299.463 51.954 C 299.463 52.343,299.620 52.526,300.000 52.580 C 300.385 52.635,300.559 52.843,300.613 53.313 C 300.654 53.675,300.789 53.970,300.911 53.970 C 301.034 53.970,301.134 54.141,301.134 54.351 C 301.134 54.560,301.343 54.786,301.599 54.853 C 301.911 54.934,302.087 55.220,302.136 55.726 C 302.190 56.283,302.341 56.496,302.719 56.550 C 303.067 56.600,303.274 56.847,303.370 57.326 C 303.481 57.882,303.637 58.030,304.113 58.030 C 304.582 58.030,304.716 58.151,304.716 58.575 C 304.716 58.960,304.925 59.198,305.433 59.390 C 305.914 59.571,306.149 59.824,306.149 60.158 C 306.149 60.525,306.301 60.657,306.720 60.657 C 307.128 60.657,307.334 60.825,307.439 61.246 C 307.564 61.743,307.773 61.860,308.779 61.993 C 309.829 62.132,309.970 62.218,309.970 62.717 C 309.970 63.187,310.092 63.284,310.687 63.284 C 311.240 63.284,311.403 63.391,311.403 63.753 C 311.403 64.346,312.085 64.716,313.178 64.716 C 313.915 64.716,314.030 64.793,314.030 65.284 C 314.030 65.858,314.703 66.149,316.033 66.149 C 316.333 66.149,316.640 66.370,316.779 66.687 C 316.990 67.167,317.210 67.231,318.851 67.293 C 320.649 67.361,320.688 67.376,320.761 68.010 C 320.831 68.612,320.924 68.662,322.102 68.729 C 323.030 68.783,323.408 68.910,323.517 69.207 C 323.765 69.878,324.085 69.963,326.388 69.966 C 328.355 69.970,328.597 70.017,328.597 70.400 C 328.597 71.178,329.113 71.403,330.897 71.403 C 332.506 71.403,332.629 71.440,332.700 71.940 C 332.771 72.441,332.909 72.482,334.746 72.547 C 336.507 72.609,336.716 72.665,336.716 73.076 C 336.716 73.773,337.456 74.030,339.464 74.030 C 341.229 74.030,341.970 74.300,341.970 74.942 C 341.970 75.282,342.593 75.463,343.764 75.463 C 344.659 75.463,344.813 75.537,344.879 76.000 C 344.950 76.497,345.093 76.543,346.806 76.607 C 348.570 76.674,348.657 76.703,348.657 77.238 C 348.657 77.888,349.051 78.090,350.322 78.090 C 351.093 78.090,351.255 78.180,351.382 78.687 C 351.516 79.221,351.653 79.284,352.691 79.284 C 353.789 79.284,353.858 79.322,353.994 80.000 C 354.108 80.569,354.261 80.716,354.740 80.716 C 355.226 80.716,355.343 80.834,355.343 81.319 C 355.343 81.798,355.491 81.952,356.060 82.066 C 356.614 82.177,356.776 82.337,356.776 82.776 C 356.776 83.222,356.904 83.343,357.373 83.343 C 357.938 83.343,357.970 83.415,357.970 84.657 C 357.970 85.957,357.977 85.970,358.687 85.970 L 359.403 85.970 359.403 89.433 C 359.403 92.750,359.383 92.896,358.919 92.896 C 358.386 92.896,357.970 93.714,357.970 94.765 C 357.970 95.204,357.799 95.484,357.433 95.645 C 357.002 95.834,356.881 96.106,356.823 97.015 C 356.753 98.095,356.716 98.149,356.047 98.149 C 355.456 98.149,355.343 98.245,355.343 98.746 C 355.343 99.225,355.224 99.343,354.740 99.343 C 354.261 99.343,354.108 99.491,353.994 100.060 C 353.859 100.735,353.786 100.776,352.712 100.776 C 351.709 100.776,351.557 100.844,351.430 101.351 C 351.310 101.830,351.088 101.952,350.090 102.090 C 349.091 102.227,348.869 102.349,348.749 102.829 C 348.609 103.386,348.536 103.403,346.291 103.403 C 343.903 103.403,343.403 103.577,343.403 104.406 C 343.403 104.813,342.894 104.836,333.970 104.836 C 324.658 104.836,324.537 104.830,324.537 104.352 C 324.537 103.597,323.610 103.403,320.010 103.403 C 316.737 103.403,316.707 103.398,316.567 102.838 C 316.413 102.225,315.568 101.978,313.612 101.973 C 313.054 101.971,312.597 101.870,312.597 101.748 C 312.597 101.104,311.792 100.776,310.209 100.776 C 308.701 100.776,308.564 100.734,308.494 100.249 C 308.405 99.630,307.754 99.401,305.987 99.367 C 304.894 99.346,304.741 99.280,304.673 98.806 C 304.606 98.330,304.440 98.260,303.224 98.197 C 301.963 98.131,301.851 98.080,301.851 97.566 C 301.851 96.368,297.371 96.264,296.119 97.433 C 295.698 97.827,295.108 98.149,294.809 98.149 C 294.009 98.149,293.977 98.471,293.973 106.460 C 293.970 113.988,294.107 115.104,295.035 115.104 C 295.223 115.104,295.405 115.390,295.447 115.752 C 295.501 116.214,295.692 116.439,296.118 116.538 C 296.452 116.616,296.753 116.883,296.802 117.145 C 296.925 117.789,297.269 117.962,298.432 117.966 C 299.343 117.970,299.438 118.028,299.507 118.627 C 299.577 119.239,299.666 119.288,300.836 119.356 C 301.976 119.421,302.090 119.479,302.090 119.995 C 302.090 120.507,302.224 120.579,303.463 120.732 C 304.373 120.844,305.063 121.092,305.511 121.466 C 306.096 121.954,306.439 122.030,308.078 122.030 C 309.800 122.030,309.970 122.072,309.970 122.499 C 309.970 123.237,310.720 123.463,313.178 123.463 C 315.456 123.463,315.463 123.464,315.463 124.060 L 315.463 124.657 318.051 124.657 C 320.561 124.657,320.648 124.674,320.904 125.237 C 321.295 126.096,321.825 126.124,336.082 126.043 L 348.941 125.970 349.465 125.313 C 349.959 124.693,350.096 124.657,351.949 124.657 C 353.882 124.657,353.910 124.648,353.910 124.060 C 353.910 123.474,353.945 123.463,355.776 123.463 C 357.565 123.463,357.663 123.434,358.163 122.757 C 358.639 122.113,358.826 122.046,360.298 121.981 C 361.763 121.917,361.917 121.861,361.987 121.373 C 362.051 120.922,362.211 120.836,362.982 120.836 C 364.261 120.836,364.657 120.635,364.657 119.987 C 364.657 119.481,364.776 119.421,365.910 119.356 C 367.080 119.288,367.169 119.239,367.240 118.627 C 367.303 118.077,367.429 117.970,368.016 117.970 C 368.604 117.970,368.716 117.874,368.716 117.373 C 368.716 116.848,368.819 116.776,369.568 116.776 C 370.662 116.776,371.343 116.406,371.343 115.812 C 371.343 115.472,371.506 115.343,371.936 115.343 C 372.365 115.343,372.569 115.182,372.675 114.760 C 372.764 114.405,373.022 114.148,373.336 114.103 C 373.694 114.052,373.873 113.834,373.925 113.388 C 373.982 112.891,374.145 112.729,374.641 112.671 C 375.142 112.613,375.300 112.452,375.359 111.940 C 375.418 111.424,375.559 111.284,376.016 111.284 C 376.477 111.284,376.597 111.160,376.597 110.687 C 376.597 110.271,376.728 110.090,377.027 110.090 C 377.716 110.090,378.030 109.590,378.030 108.490 C 378.030 107.553,378.083 107.463,378.627 107.463 C 379.128 107.463,379.224 107.350,379.224 106.762 C 379.224 106.175,379.331 106.049,379.881 105.986 C 380.493 105.916,380.542 105.826,380.609 104.657 C 380.670 103.606,380.756 103.403,381.138 103.403 C 381.775 103.403,382.090 102.691,382.090 101.252 C 382.090 100.066,382.445 99.343,383.028 99.343 C 383.190 99.343,383.284 98.598,383.284 97.313 C 383.284 95.334,383.298 95.284,383.853 95.284 C 384.673 95.284,384.710 94.969,384.711 87.881 C 384.711 80.500,384.640 79.811,383.858 79.615 C 383.341 79.485,383.297 79.341,383.233 77.529 C 383.169 75.716,383.127 75.577,382.627 75.506 C 382.176 75.442,382.090 75.282,382.090 74.510 C 382.090 73.226,381.889 72.836,381.228 72.836 C 380.696 72.836,380.657 72.747,380.657 71.541 C 380.657 70.297,380.629 70.241,379.940 70.090 C 379.385 69.968,379.224 69.802,379.224 69.354 C 379.224 68.897,379.099 68.776,378.627 68.776 C 378.092 68.776,378.030 68.679,378.030 67.840 C 378.030 66.546,377.832 66.149,377.184 66.149 C 376.756 66.149,376.611 65.999,376.553 65.493 C 376.500 65.032,376.324 64.814,375.963 64.762 C 375.649 64.718,375.391 64.461,375.301 64.106 C 375.209 63.737,374.984 63.522,374.690 63.522 C 374.435 63.522,374.098 63.281,373.943 62.985 C 373.553 62.245,373.273 62.097,372.255 62.093 C 371.474 62.090,371.367 62.016,371.299 61.433 C 371.241 60.921,371.082 60.760,370.582 60.702 C 370.132 60.650,369.918 60.471,369.865 60.105 C 369.801 59.655,369.618 59.572,368.552 59.510 C 367.405 59.444,367.307 59.391,367.239 58.794 C 367.170 58.197,367.073 58.144,365.925 58.078 C 364.858 58.016,364.676 57.933,364.612 57.481 C 364.549 57.038,364.320 56.923,363.164 56.749 C 362.239 56.610,361.791 56.433,361.791 56.206 C 361.791 55.726,360.776 55.403,359.268 55.403 C 358.124 55.403,357.970 55.346,357.970 54.919 C 357.970 54.289,357.111 53.970,355.415 53.970 C 354.303 53.970,353.994 53.872,353.531 53.373 C 353.050 52.853,352.776 52.776,351.414 52.776 C 349.926 52.776,349.851 52.749,349.851 52.207 C 349.851 51.502,349.362 51.351,347.062 51.347 C 345.520 51.344,345.301 51.283,344.878 50.746 C 344.452 50.205,344.244 50.149,342.622 50.149 L 340.836 50.149 340.693 49.433 L 340.549 48.716 338.633 48.716 C 336.868 48.716,336.716 48.678,336.716 48.233 C 336.716 47.594,335.853 47.284,334.074 47.284 C 332.721 47.284,332.657 47.256,332.657 46.687 C 332.657 46.123,332.584 46.090,331.359 46.090 C 330.121 46.090,330.058 46.059,329.986 45.433 C 329.916 44.822,329.825 44.771,328.672 44.704 C 327.604 44.643,327.423 44.560,327.358 44.107 C 327.305 43.735,327.092 43.560,326.627 43.507 C 326.192 43.456,325.970 43.291,325.970 43.017 C 325.970 42.490,325.514 42.030,324.993 42.030 C 324.761 42.030,324.525 41.775,324.439 41.433 C 324.350 41.079,324.118 40.836,323.869 40.836 C 323.621 40.836,323.337 40.542,323.178 40.119 C 322.999 39.647,322.742 39.403,322.422 39.403 C 322.012 39.403,321.925 39.226,321.864 38.269 C 321.806 37.360,321.684 37.087,321.254 36.899 C 320.377 36.514,320.427 30.162,321.313 29.275 C 321.807 28.782,321.910 28.448,321.910 27.354 C 321.910 26.042,321.917 26.030,322.627 26.030 C 323.264 26.030,323.343 25.950,323.343 25.313 C 323.343 24.677,323.423 24.597,324.060 24.597 C 324.665 24.597,324.776 24.504,324.776 24.000 C 324.776 23.456,324.867 23.403,325.803 23.403 C 326.903 23.403,327.403 23.090,327.403 22.400 C 327.403 22.041,327.609 21.970,328.660 21.970 C 329.734 21.970,329.951 21.892,330.152 21.433 C 330.377 20.921,330.552 20.889,333.865 20.759 C 337.568 20.613,337.910 20.532,337.910 19.807 C 337.910 19.364,338.118 19.343,342.661 19.343 L 347.411 19.343 347.552 19.905 C 347.721 20.579,349.111 20.772,353.822 20.774 C 356.559 20.776,356.737 20.806,357.074 21.313 C 357.395 21.797,357.659 21.859,359.717 21.933 C 361.989 22.015,362.003 22.019,362.076 22.649 C 362.143 23.232,362.248 23.289,363.370 23.355 C 364.399 23.414,364.632 23.518,364.857 24.011 C 365.106 24.557,365.246 24.597,366.904 24.597 C 368.669 24.597,368.685 24.603,368.760 25.254 L 368.836 25.910 372.716 25.976 L 376.597 26.042 376.597 25.335 C 376.597 24.742,376.702 24.617,377.254 24.553 L 377.910 24.478 377.977 17.791 C 378.053 10.243,378.031 10.030,377.189 10.030 C 376.651 10.030,376.597 9.937,376.597 9.003 C 376.597 7.911,376.284 7.403,375.611 7.403 C 375.364 7.403,375.167 7.186,375.121 6.866 C 375.060 6.434,374.824 6.286,373.927 6.112 C 373.045 5.942,372.780 5.778,372.669 5.336 C 372.543 4.834,372.393 4.776,371.219 4.776 C 369.924 4.776,369.910 4.769,369.910 4.060 C 369.910 3.352,369.895 3.343,368.614 3.343 C 367.453 3.343,367.309 3.287,367.240 2.809 C 367.151 2.182,366.196 1.946,363.658 1.924 C 362.191 1.912,362.057 1.867,361.987 1.373 C 361.913 0.857,361.805 0.833,359.224 0.768 C 357.052 0.714,356.537 0.634,356.537 0.350 C 356.537 0.046,354.456 0.000,340.657 0.000 C 326.895 0.000,324.776 0.047,324.776 0.349 M125.732 2.087 C 124.968 2.200,124.666 2.499,124.660 3.153 C 124.658 3.377,124.388 3.829,124.060 4.157 C 123.499 4.718,123.463 4.907,123.463 7.247 C 123.463 9.706,123.471 9.741,124.060 9.889 C 124.631 10.032,124.657 10.118,124.657 11.846 C 124.657 13.635,124.664 13.656,125.373 13.924 L 126.090 14.194 126.090 16.187 C 126.090 18.256,126.335 19.104,126.934 19.104 C 127.210 19.104,127.284 19.480,127.284 20.878 C 127.284 22.684,127.592 23.403,128.365 23.403 C 128.613 23.403,128.714 23.869,128.766 25.254 C 128.831 26.967,128.876 27.110,129.373 27.181 C 129.870 27.251,129.913 27.385,129.939 28.972 C 129.977 31.325,130.170 32.076,130.807 32.355 C 131.282 32.564,131.343 32.765,131.343 34.102 C 131.343 35.819,131.627 36.537,132.307 36.537 C 132.735 36.537,132.776 36.708,132.776 38.473 C 132.776 40.253,132.824 40.447,133.373 40.878 C 133.897 41.291,133.970 41.532,133.970 42.858 C 133.970 44.206,134.047 44.450,134.687 45.134 C 135.297 45.788,135.403 46.089,135.403 47.174 C 135.403 48.687,135.730 49.672,136.233 49.672 C 136.521 49.672,136.597 49.991,136.597 51.208 C 136.597 53.090,136.897 53.970,137.537 53.970 C 137.965 53.970,138.017 54.158,138.080 55.940 C 138.144 57.753,138.191 57.916,138.666 57.984 C 139.137 58.051,139.197 58.243,139.337 60.133 C 139.549 62.997,139.523 62.898,140.121 63.161 C 140.595 63.370,140.657 63.571,140.657 64.908 C 140.657 66.625,140.941 67.343,141.620 67.343 C 142.048 67.343,142.090 67.514,142.090 69.249 C 142.090 71.083,142.112 71.161,142.687 71.305 C 143.248 71.446,143.284 71.549,143.285 73.041 C 143.287 75.169,143.644 76.418,144.250 76.418 C 144.661 76.418,144.716 76.589,144.716 77.851 C 144.716 79.220,144.743 79.284,145.313 79.284 C 145.888 79.284,145.910 79.342,145.910 80.802 C 145.910 83.495,146.133 84.481,146.776 84.643 C 147.311 84.777,147.343 84.889,147.343 86.592 C 147.343 88.381,147.351 88.402,148.060 88.670 C 148.767 88.937,148.776 88.964,148.776 90.705 C 148.776 92.302,148.833 92.513,149.373 92.938 C 149.910 93.361,149.970 93.580,149.973 95.122 C 149.978 97.413,150.130 97.910,150.824 97.910 C 151.360 97.910,151.387 97.993,151.453 99.881 C 151.518 101.717,151.559 101.856,152.060 101.927 C 152.557 101.998,152.599 102.132,152.625 103.718 C 152.664 106.042,152.859 106.823,153.469 107.091 C 153.906 107.283,153.995 107.557,154.074 108.962 C 154.151 110.316,154.261 110.679,154.694 111.005 C 155.127 111.332,155.248 111.733,155.377 113.258 C 155.519 114.945,155.584 115.126,156.095 115.254 C 156.588 115.378,156.657 115.537,156.657 116.548 C 156.657 118.006,157.007 118.937,157.615 119.096 C 157.949 119.183,158.090 119.422,158.090 119.904 C 158.090 120.428,158.224 120.622,158.666 120.733 C 159.009 120.819,159.301 121.110,159.387 121.454 C 159.520 121.984,159.648 122.030,160.985 122.030 C 162.187 122.030,162.561 122.133,163.148 122.627 L 163.858 123.224 171.343 123.224 L 178.829 123.224 179.524 122.639 C 180.073 122.177,180.540 122.040,181.751 121.983 C 183.119 121.918,183.292 121.854,183.358 121.388 C 183.404 121.062,183.629 120.837,183.955 120.791 C 184.324 120.738,184.500 120.524,184.553 120.060 C 184.595 119.699,184.775 119.403,184.954 119.403 C 185.701 119.403,186.030 118.676,186.030 117.024 C 186.030 115.486,186.063 115.387,186.627 115.245 C 187.216 115.097,187.224 115.062,187.224 112.609 C 187.224 110.239,187.249 110.114,187.761 109.954 C 188.591 109.695,188.649 109.457,188.653 106.328 C 188.656 103.581,188.685 103.403,189.126 103.403 C 189.802 103.403,190.090 102.686,190.090 100.998 C 190.090 99.725,190.173 99.440,190.687 98.964 C 191.259 98.434,191.284 98.293,191.284 95.572 C 191.284 92.822,191.301 92.725,191.847 92.477 C 192.511 92.174,192.716 91.368,192.716 89.071 C 192.716 87.546,192.750 87.446,193.313 87.305 C 193.905 87.156,193.910 87.131,193.910 84.533 C 193.910 82.059,193.938 81.910,194.394 81.910 C 195.119 81.910,195.343 81.002,195.343 78.074 C 195.343 75.970,195.410 75.463,195.684 75.463 C 196.468 75.463,196.776 74.751,196.776 72.938 C 196.776 71.508,196.847 71.164,197.140 71.164 C 197.738 71.164,197.970 70.089,197.970 67.328 C 197.970 65.400,198.048 64.715,198.269 64.713 C 199.056 64.703,199.224 64.264,199.372 61.819 C 199.514 59.486,199.553 59.339,200.060 59.267 C 200.579 59.193,200.597 59.105,200.597 56.606 C 200.597 54.086,200.611 54.018,201.164 53.880 C 201.850 53.708,202.030 52.987,202.030 50.415 C 202.030 48.752,202.077 48.570,202.567 48.355 C 203.067 48.136,203.109 47.949,203.173 45.672 C 203.235 43.436,203.281 43.224,203.701 43.224 C 204.462 43.224,204.657 42.445,204.657 39.400 L 204.657 36.501 205.373 37.217 C 206.069 37.912,206.090 38.000,206.090 40.201 C 206.090 42.784,206.197 43.224,206.832 43.224 C 207.234 43.224,207.284 43.416,207.284 44.996 C 207.284 46.815,207.780 48.234,208.418 48.237 C 208.639 48.238,208.717 48.938,208.721 50.925 C 208.724 53.473,208.755 53.641,209.318 54.174 C 209.812 54.643,209.911 54.961,209.913 56.085 C 209.917 58.320,210.136 59.188,210.716 59.271 C 211.195 59.339,211.231 59.510,211.343 62.288 C 211.462 65.226,211.695 65.910,212.575 65.910 C 212.676 65.910,212.790 67.012,212.827 68.358 C 212.891 70.635,212.933 70.822,213.433 71.042 C 213.924 71.257,213.970 71.437,213.970 73.144 C 213.970 74.999,213.974 75.011,214.680 75.257 L 215.389 75.505 215.456 78.648 C 215.521 81.703,215.538 81.793,216.060 81.867 C 216.561 81.939,216.597 82.061,216.597 83.688 C 216.597 86.141,216.791 86.920,217.466 87.177 C 218.007 87.382,218.030 87.489,218.030 89.797 C 218.030 92.133,218.396 93.612,218.973 93.612 C 219.091 93.612,219.263 94.571,219.355 95.743 C 219.510 97.723,219.561 97.883,220.089 98.016 C 220.638 98.154,220.657 98.234,220.657 100.494 C 220.657 102.903,220.829 103.403,221.660 103.403 C 222.052 103.403,222.090 103.677,222.090 106.513 C 222.090 109.611,222.092 109.625,222.687 109.851 C 223.251 110.065,223.284 110.177,223.284 111.887 C 223.284 113.796,223.723 115.104,224.364 115.104 C 224.647 115.104,224.716 115.504,224.716 117.130 C 224.716 119.091,224.735 119.160,225.313 119.305 C 225.656 119.391,225.910 119.627,225.910 119.859 C 225.910 120.386,226.373 120.836,226.913 120.836 C 227.213 120.836,227.343 121.017,227.343 121.433 C 227.343 122.001,227.411 122.030,228.719 122.030 C 229.918 122.030,230.126 122.099,230.331 122.567 L 230.567 123.104 238.995 123.167 C 247.482 123.230,248.358 123.157,248.358 122.380 C 248.358 122.111,248.692 122.030,249.791 122.030 C 251.150 122.030,251.224 122.000,251.224 121.449 C 251.224 120.992,251.365 120.851,251.881 120.792 C 252.387 120.734,252.554 120.573,252.610 120.092 C 252.653 119.717,252.902 119.368,253.232 119.217 C 253.832 118.944,254.090 118.099,254.090 116.405 C 254.090 115.520,254.165 115.366,254.627 115.300 C 255.128 115.229,255.169 115.091,255.234 113.254 C 255.300 111.364,255.326 111.284,255.865 111.284 C 256.592 111.284,256.715 110.914,256.724 108.697 C 256.731 106.900,257.030 106.030,257.638 106.030 C 257.809 106.030,257.910 105.536,257.910 104.698 C 257.910 103.537,258.002 103.275,258.627 102.650 C 259.260 102.016,259.343 101.771,259.343 100.531 C 259.343 99.598,259.453 99.064,259.669 98.937 C 260.327 98.552,260.776 97.230,260.776 95.680 C 260.776 94.238,260.814 94.132,261.373 93.991 C 261.948 93.847,261.970 93.770,261.970 91.936 C 261.970 90.200,262.012 90.030,262.439 90.030 C 263.129 90.030,263.402 89.308,263.407 87.478 C 263.411 86.058,263.487 85.779,264.004 85.288 C 264.503 84.815,264.597 84.506,264.597 83.334 C 264.597 82.139,264.666 81.921,265.088 81.787 C 265.754 81.575,266.030 80.738,266.030 78.927 C 266.030 77.591,266.102 77.351,266.627 76.938 C 267.175 76.507,267.224 76.312,267.224 74.549 C 267.224 72.632,267.225 72.629,267.881 72.553 C 268.527 72.479,268.538 72.448,268.607 70.629 C 268.672 68.915,268.718 68.770,269.238 68.639 C 269.878 68.479,270.090 67.767,270.090 65.777 C 270.090 64.746,270.173 64.483,270.539 64.367 C 271.033 64.210,271.284 63.322,271.284 61.727 C 271.284 60.855,271.365 60.688,271.849 60.567 C 272.490 60.406,272.709 59.568,272.714 57.259 C 272.716 56.065,272.792 55.842,273.313 55.500 C 273.867 55.138,273.910 54.971,273.910 53.226 C 273.910 51.399,273.927 51.343,274.482 51.343 C 275.209 51.343,275.343 50.970,275.343 48.952 C 275.343 47.447,275.385 47.311,275.871 47.240 C 276.506 47.149,276.718 46.501,276.756 44.537 C 276.780 43.343,276.883 43.011,277.377 42.542 C 277.876 42.069,277.970 41.760,277.970 40.589 C 277.970 39.329,278.021 39.190,278.506 39.121 C 279.158 39.028,279.335 38.346,279.375 35.778 C 279.401 34.068,279.439 33.939,279.940 33.867 C 280.434 33.797,280.487 33.638,280.597 31.883 C 280.701 30.214,280.776 29.964,281.194 29.885 C 281.898 29.753,282.022 29.422,282.026 27.668 C 282.030 26.176,282.066 26.073,282.627 25.932 C 283.210 25.785,283.224 25.730,283.224 23.569 C 283.224 21.364,283.226 21.355,283.940 20.934 C 284.590 20.549,284.657 20.395,284.657 19.267 C 284.657 18.207,284.736 17.989,285.193 17.788 C 285.830 17.508,286.023 16.758,286.061 14.405 C 286.087 12.818,286.130 12.684,286.627 12.614 C 287.160 12.538,287.165 12.503,287.229 7.940 L 287.294 3.343 286.692 3.343 C 286.246 3.343,286.090 3.217,286.090 2.860 C 286.090 1.997,285.165 1.910,275.958 1.910 C 265.808 1.910,264.894 1.976,264.789 2.717 C 264.738 3.070,264.516 3.247,264.060 3.299 C 263.514 3.362,263.403 3.490,263.403 4.060 C 263.403 4.629,263.292 4.757,262.746 4.820 C 262.136 4.890,262.085 4.982,262.018 6.126 C 261.956 7.206,261.875 7.375,261.361 7.504 C 260.787 7.648,260.776 7.697,260.776 10.154 C 260.776 12.405,260.733 12.657,260.346 12.657 C 259.564 12.657,259.343 13.172,259.343 14.995 C 259.343 16.539,259.285 16.776,258.882 16.882 C 258.214 17.056,258.110 17.480,257.971 20.585 C 257.854 23.200,257.814 23.383,257.341 23.450 C 256.880 23.516,256.830 23.695,256.767 25.479 C 256.708 27.149,256.632 27.457,256.249 27.579 C 255.617 27.779,255.284 28.928,255.284 30.904 C 255.284 32.437,255.231 32.626,254.746 32.839 C 254.244 33.059,254.205 33.241,254.141 35.642 C 254.078 38.023,254.039 38.209,253.598 38.209 C 252.918 38.209,252.657 39.108,252.657 41.448 C 252.657 43.409,252.642 43.463,252.090 43.463 C 251.539 43.463,251.520 43.533,251.354 46.090 C 251.260 47.534,251.093 48.716,250.982 48.716 C 250.287 48.716,250.030 49.528,250.030 51.719 C 250.030 53.511,249.960 53.970,249.689 53.970 C 248.919 53.970,248.597 54.685,248.597 56.397 C 248.597 57.847,248.525 58.131,248.060 58.507 C 247.566 58.907,247.516 59.173,247.443 61.815 L 247.364 64.688 246.727 64.762 C 246.101 64.834,246.088 64.871,246.021 66.782 C 245.955 68.626,245.921 68.737,245.364 68.877 C 244.782 69.023,244.776 69.052,244.776 71.766 C 244.776 74.535,244.477 75.463,243.582 75.463 C 243.442 75.463,243.343 76.293,243.343 77.476 C 243.343 79.380,243.314 79.493,242.808 79.565 C 242.155 79.658,241.978 80.341,241.939 82.925 C 241.917 84.379,241.835 84.776,241.561 84.776 C 240.951 84.776,240.716 85.636,240.716 87.865 C 240.716 89.882,240.683 90.030,240.231 90.030 C 239.965 90.030,239.669 90.218,239.575 90.448 C 239.475 90.690,239.348 90.024,239.273 88.866 C 239.164 87.183,239.060 86.799,238.616 86.440 C 238.174 86.081,238.089 85.770,238.087 84.499 C 238.083 82.090,237.864 81.187,237.228 80.945 C 236.701 80.745,236.670 80.604,236.605 78.158 L 236.537 75.582 235.881 75.507 L 235.224 75.431 235.224 72.846 C 235.224 70.288,235.218 70.259,234.627 70.111 C 234.036 69.963,234.030 69.936,234.030 67.354 C 234.030 64.431,233.805 63.522,233.081 63.522 C 232.626 63.522,232.597 63.373,232.597 61.010 C 232.597 58.561,232.582 58.490,232.000 58.225 C 231.440 57.970,231.403 57.840,231.397 56.141 C 231.390 53.861,231.087 52.530,230.460 52.021 C 230.036 51.678,229.970 51.353,229.970 49.600 C 229.970 47.638,229.951 47.569,229.373 47.424 C 228.791 47.278,228.776 47.219,228.776 45.114 C 228.776 42.775,228.543 42.030,227.812 42.030 C 227.371 42.030,227.343 41.853,227.343 39.062 C 227.343 36.002,227.150 35.343,226.252 35.343 C 225.978 35.343,225.910 34.850,225.910 32.840 C 225.910 30.370,225.903 30.336,225.313 30.188 C 224.727 30.040,224.716 29.997,224.716 27.668 C 224.716 25.146,224.319 23.642,223.654 23.642 C 223.347 23.642,223.284 23.278,223.284 21.518 C 223.284 19.566,223.235 19.348,222.691 18.831 C 222.180 18.347,222.097 18.054,222.090 16.716 C 222.080 14.584,221.919 14.090,221.233 14.090 C 220.672 14.090,220.670 14.077,220.604 10.806 L 220.537 7.522 219.881 7.447 C 219.254 7.375,219.224 7.312,219.224 6.074 C 219.224 4.858,219.187 4.776,218.643 4.776 C 218.186 4.776,218.045 4.635,217.986 4.119 C 217.927 3.604,217.770 3.446,217.254 3.387 C 216.750 3.329,216.597 3.184,216.597 2.763 C 216.597 1.971,215.797 1.910,205.400 1.914 C 195.566 1.917,195.343 1.936,195.343 2.762 C 195.343 3.265,195.223 3.325,194.090 3.391 L 192.836 3.463 192.764 4.702 C 192.698 5.849,192.645 5.946,192.048 6.015 C 191.445 6.085,191.398 6.174,191.332 7.403 C 191.277 8.424,191.144 8.806,190.735 9.120 C 190.270 9.478,190.199 9.789,190.126 11.822 C 190.049 13.950,190.003 14.134,189.503 14.325 C 188.821 14.584,188.657 15.373,188.657 18.401 C 188.657 20.648,188.635 20.746,188.119 20.819 C 187.616 20.891,187.569 21.056,187.377 23.417 C 187.195 25.662,187.116 25.964,186.661 26.163 C 186.180 26.374,186.145 26.580,186.083 29.552 C 186.016 32.697,186.013 32.716,185.454 32.716 C 184.737 32.716,184.604 33.202,184.600 35.855 C 184.597 37.856,184.579 37.923,184.000 38.068 C 183.422 38.213,183.403 38.282,183.403 40.251 C 183.403 41.859,183.326 42.313,183.036 42.425 C 182.339 42.692,181.970 44.137,181.970 46.596 C 181.970 48.752,181.931 48.955,181.518 48.955 C 180.885 48.955,180.776 49.395,180.776 51.960 C 180.776 54.173,180.767 54.209,180.205 54.209 C 179.423 54.209,179.343 54.541,179.343 57.806 C 179.343 60.600,179.334 60.650,178.774 60.790 C 178.106 60.958,177.917 61.751,177.913 64.401 C 177.911 65.997,177.873 66.121,177.373 66.192 C 176.859 66.265,176.833 66.379,176.768 68.836 C 176.705 71.217,176.666 71.403,176.225 71.403 C 175.503 71.403,175.284 72.327,175.284 75.359 L 175.284 78.090 174.687 78.090 C 174.097 78.090,174.090 78.115,174.090 80.092 C 174.090 81.889,174.041 82.106,173.615 82.218 C 172.888 82.408,172.657 83.372,172.657 86.208 C 172.657 88.717,172.639 88.805,172.119 88.879 C 171.649 88.946,171.565 89.134,171.443 90.388 C 171.334 91.514,171.296 91.227,171.264 89.042 C 171.225 86.363,171.203 86.250,170.627 85.873 C 170.072 85.509,170.030 85.346,170.030 83.561 C 170.030 81.459,169.780 80.716,169.074 80.716 C 168.651 80.716,168.608 80.503,168.545 78.149 C 168.481 75.693,168.454 75.579,167.940 75.506 C 167.435 75.434,167.403 75.317,167.403 73.565 C 167.403 70.872,167.232 70.209,166.537 70.209 C 165.978 70.209,165.970 70.175,165.970 67.838 C 165.970 65.505,165.724 64.716,164.998 64.716 C 164.876 64.716,164.763 63.884,164.748 62.866 C 164.709 60.293,164.531 59.599,163.888 59.507 C 163.402 59.438,163.357 59.285,163.293 57.477 C 163.225 55.542,163.217 55.522,162.567 55.447 L 161.910 55.371 161.910 52.168 L 161.910 48.964 161.313 48.814 C 160.744 48.671,160.716 48.584,160.716 46.888 C 160.716 45.010,160.273 43.701,159.636 43.701 C 159.352 43.701,159.284 43.289,159.284 41.568 C 159.284 39.255,159.025 38.209,158.454 38.209 C 158.164 38.209,158.089 37.881,158.087 36.597 C 158.083 34.103,157.869 33.192,157.219 32.896 C 156.698 32.658,156.657 32.502,156.657 30.762 L 156.657 28.884 155.940 28.740 L 155.224 28.597 155.224 25.781 C 155.224 22.649,155.134 22.209,154.492 22.209 C 154.102 22.209,154.041 21.973,153.980 20.239 C 153.911 18.287,153.904 18.268,153.254 18.193 L 152.597 18.118 152.597 15.610 C 152.597 13.150,152.390 12.261,151.726 11.869 C 151.514 11.744,151.395 11.168,151.379 10.197 C 151.347 8.190,151.138 7.539,150.498 7.446 C 150.028 7.378,149.970 7.228,149.970 6.073 C 149.970 4.867,149.930 4.776,149.403 4.776 C 148.964 4.776,148.803 4.614,148.693 4.060 C 148.580 3.497,148.423 3.343,147.963 3.343 C 147.538 3.343,147.356 3.196,147.300 2.809 C 147.241 2.394,147.012 2.238,146.269 2.107 C 145.251 1.927,126.939 1.910,125.732 2.087 M72.597 69.373 L 73.158 69.970 78.951 69.970 L 84.744 69.970 84.820 70.627 L 84.896 71.284 87.463 71.351 L 90.030 71.419 90.030 75.692 L 90.030 79.965 89.373 80.481 C 88.724 80.992,88.716 81.032,88.638 84.186 C 88.564 87.250,88.540 87.377,88.041 87.448 C 87.579 87.514,87.515 87.690,87.450 89.070 C 87.377 90.625,86.972 91.463,86.291 91.463 C 86.110 91.463,85.970 91.716,85.970 92.043 C 85.970 92.463,85.822 92.645,85.433 92.700 C 85.048 92.754,84.874 92.963,84.820 93.433 C 84.765 93.908,84.611 94.090,84.262 94.090 C 83.947 94.090,83.687 94.334,83.513 94.796 C 83.356 95.210,83.044 95.531,82.757 95.572 C 82.477 95.612,82.239 95.850,82.199 96.131 C 82.158 96.417,81.837 96.730,81.423 96.886 C 80.961 97.060,80.716 97.320,80.716 97.635 C 80.716 97.984,80.534 98.138,80.060 98.193 C 79.589 98.247,79.381 98.421,79.327 98.806 C 79.271 99.195,79.090 99.343,78.670 99.343 C 78.184 99.343,78.090 99.460,78.090 100.060 C 78.090 100.769,78.076 100.776,76.776 100.776 C 75.534 100.776,75.463 100.809,75.463 101.373 C 75.463 101.927,75.380 101.970,74.316 101.970 C 73.105 101.970,72.597 102.266,72.597 102.973 C 72.597 103.360,72.345 103.403,70.101 103.403 C 67.464 103.403,66.503 103.652,66.311 104.387 C 66.200 104.813,65.848 104.836,59.508 104.836 L 52.823 104.836 52.573 104.119 C 52.342 103.457,52.236 103.403,51.174 103.403 C 50.210 103.403,49.985 103.316,49.788 102.866 C 49.617 102.475,49.242 102.268,48.418 102.109 C 47.452 101.923,47.284 101.808,47.284 101.333 C 47.284 100.906,47.151 100.776,46.716 100.776 C 46.277 100.776,46.117 100.614,46.006 100.060 C 45.892 99.491,45.739 99.343,45.260 99.343 C 44.708 99.343,44.657 99.255,44.657 98.316 C 44.657 97.221,44.343 96.716,43.664 96.716 C 43.305 96.716,43.234 96.446,43.174 94.866 C 43.110 93.153,43.064 93.009,42.567 92.939 C 42.031 92.862,42.030 92.856,42.030 88.129 L 42.030 83.395 42.627 83.245 C 43.201 83.101,43.224 83.022,43.224 81.205 C 43.224 79.321,43.226 79.315,43.881 79.240 C 44.492 79.169,44.542 79.079,44.609 77.925 C 44.675 76.778,44.728 76.681,45.325 76.612 C 45.777 76.560,45.992 76.381,46.045 76.015 C 46.091 75.689,46.316 75.464,46.642 75.418 C 47.007 75.366,47.186 75.151,47.238 74.701 C 47.296 74.205,47.458 74.042,47.955 73.985 C 48.455 73.927,48.614 73.765,48.673 73.254 C 48.745 72.627,48.808 72.597,50.046 72.597 C 51.263 72.597,51.343 72.561,51.343 72.012 C 51.343 71.476,51.446 71.422,52.597 71.356 C 53.763 71.289,53.856 71.238,53.926 70.633 L 54.001 69.982 57.866 69.916 C 61.670 69.852,61.733 69.842,61.808 69.313 L 61.884 68.776 66.960 68.776 L 72.036 68.776 72.597 69.373 " stroke="none" fill="#000000" fill-rule="evenodd"></path><path id="path1" d="M357.194 147.508 C 356.941 147.574,356.776 147.846,356.776 148.197 L 356.776 148.776 352.934 148.776 L 349.093 148.776 348.822 149.493 L 348.552 150.209 346.444 150.209 C 344.502 150.209,344.292 150.256,343.782 150.806 C 343.332 151.291,343.003 151.403,342.021 151.403 C 340.997 151.403,340.704 151.512,340.096 152.119 C 339.472 152.744,339.210 152.836,338.048 152.836 C 336.794 152.836,336.716 152.870,336.716 153.420 C 336.716 153.957,336.614 154.011,335.463 154.077 C 334.293 154.144,334.204 154.193,334.133 154.806 C 334.061 155.433,333.998 155.463,332.760 155.463 C 331.559 155.463,331.463 155.504,331.463 156.021 C 331.463 156.516,331.308 156.604,330.090 156.797 C 328.927 156.982,328.705 157.097,328.640 157.552 C 328.585 157.941,328.403 158.090,327.983 158.090 C 327.498 158.090,327.403 158.206,327.403 158.806 C 327.403 159.515,327.390 159.522,326.090 159.522 C 324.866 159.522,324.776 159.561,324.776 160.090 C 324.776 160.529,324.614 160.689,324.060 160.800 L 323.343 160.943 323.343 164.173 L 323.343 167.403 324.060 167.403 C 324.655 167.403,324.776 167.499,324.776 167.970 C 324.776 169.198,332.387 169.157,333.386 167.924 C 333.797 167.416,333.945 167.403,339.187 167.403 C 344.580 167.403,345.791 167.251,345.791 166.573 C 345.791 166.252,347.216 166.209,357.970 166.209 C 368.507 166.209,370.149 166.256,370.149 166.559 C 370.149 167.168,371.009 167.403,373.238 167.403 C 375.360 167.403,375.403 167.414,375.403 167.972 C 375.403 168.593,375.906 168.827,377.254 168.833 C 378.025 168.836,378.030 168.843,378.030 170.025 C 378.030 171.095,378.090 171.230,378.627 171.365 L 379.224 171.514 379.224 174.939 C 379.224 178.261,379.206 178.383,378.627 179.008 C 378.066 179.613,378.030 179.810,378.030 182.244 C 378.030 184.687,378.002 184.836,377.546 184.836 C 376.903 184.836,376.598 185.699,376.593 187.538 C 376.589 188.797,376.501 189.098,375.996 189.577 C 375.456 190.089,375.403 190.320,375.403 192.144 C 375.403 194.100,375.389 194.149,374.832 194.149 C 374.104 194.149,373.970 194.522,373.970 196.557 C 373.970 198.160,373.952 198.209,373.373 198.209 C 372.786 198.209,372.776 198.240,372.776 200.125 L 372.776 202.042 372.060 202.185 C 371.361 202.325,371.343 202.364,371.343 203.731 C 371.343 204.840,371.266 205.134,370.973 205.134 C 370.467 205.134,369.910 206.561,369.910 207.856 C 369.910 208.780,369.839 208.932,369.373 208.998 C 368.876 209.069,368.831 209.213,368.766 210.910 C 368.698 212.709,368.684 212.748,368.050 212.821 C 367.449 212.890,367.398 212.985,367.331 214.148 C 367.267 215.249,367.188 215.418,366.674 215.547 L 366.090 215.694 366.090 219.461 C 366.090 223.723,365.981 223.512,368.182 223.519 C 368.742 223.521,369.411 223.654,369.669 223.815 C 370.039 224.046,370.199 224.046,370.430 223.815 C 370.591 223.654,371.211 223.521,371.809 223.519 C 373.456 223.514,373.970 223.313,373.970 222.675 C 373.970 222.248,374.121 222.104,374.627 222.046 C 375.091 221.992,375.305 221.817,375.358 221.448 C 375.404 221.122,375.629 220.897,375.955 220.851 C 376.324 220.798,376.500 220.583,376.553 220.119 C 376.616 219.569,376.743 219.463,377.329 219.463 C 377.948 219.463,378.030 219.379,378.030 218.746 C 378.030 218.141,378.123 218.030,378.627 218.030 C 379.100 218.030,379.224 217.909,379.224 217.449 C 379.224 216.992,379.365 216.851,379.881 216.792 C 380.396 216.733,380.554 216.576,380.613 216.060 C 380.672 215.542,380.813 215.403,381.276 215.403 C 381.734 215.403,381.893 215.249,382.003 214.700 C 382.099 214.220,382.306 213.973,382.654 213.923 C 383.010 213.873,383.187 213.652,383.240 213.194 C 383.281 212.833,383.523 212.426,383.777 212.290 C 384.031 212.154,384.239 211.885,384.239 211.693 C 384.239 211.501,384.346 211.343,384.478 211.343 C 384.609 211.343,384.716 211.082,384.716 210.763 C 384.716 210.343,384.865 210.161,385.254 210.106 C 385.638 210.052,385.813 209.843,385.867 209.373 C 385.919 208.914,386.078 208.716,386.396 208.716 C 386.974 208.716,387.343 208.025,387.343 206.941 C 387.343 206.203,387.419 206.090,387.912 206.090 C 388.531 206.090,388.767 205.586,388.773 204.255 C 388.775 203.651,388.886 203.480,389.313 203.420 C 389.704 203.364,389.872 203.157,389.929 202.659 C 389.977 202.236,390.176 201.931,390.451 201.859 C 391.000 201.716,391.403 200.618,391.403 199.265 C 391.403 198.386,391.479 198.231,391.940 198.166 C 392.379 198.104,392.492 197.915,392.555 197.134 C 392.635 196.144,393.151 195.343,393.709 195.343 C 393.938 195.343,394.030 194.977,394.030 194.068 C 394.030 192.940,394.099 192.762,394.627 192.521 C 395.180 192.269,395.224 192.128,395.224 190.596 C 395.224 188.973,395.237 188.938,395.940 188.693 C 396.651 188.445,396.657 188.428,396.657 186.644 C 396.657 184.946,396.689 184.837,397.228 184.702 C 397.920 184.528,398.090 183.848,398.090 181.240 C 398.090 179.489,398.122 179.372,398.627 179.300 C 399.143 179.227,399.167 179.118,399.232 176.537 C 399.286 174.366,399.366 173.851,399.650 173.851 C 399.952 173.851,400.000 172.492,400.000 163.940 C 400.000 155.290,399.954 154.030,399.642 154.030 C 399.419 154.030,399.284 153.804,399.284 153.433 C 399.284 152.960,399.163 152.836,398.702 152.836 C 398.246 152.836,398.105 152.695,398.046 152.179 C 397.987 151.668,397.828 151.506,397.328 151.448 C 396.879 151.396,396.664 151.217,396.612 150.851 C 396.543 150.369,396.387 150.323,394.582 150.259 C 392.653 150.191,392.626 150.181,392.552 149.543 L 392.478 148.896 389.194 148.829 C 385.927 148.763,385.910 148.760,385.910 148.202 C 385.910 147.766,385.746 147.609,385.164 147.493 C 384.322 147.324,357.842 147.339,357.194 147.508 M0.716 156.054 C 0.716 156.431,0.582 156.657,0.358 156.657 C 0.057 156.657,0.000 157.187,0.000 160.000 C 0.000 162.813,0.057 163.343,0.358 163.343 C 0.597 163.343,0.716 163.582,0.716 164.060 C 0.716 164.665,0.809 164.776,1.313 164.776 C 1.729 164.776,1.910 164.907,1.910 165.206 C 1.910 165.756,2.363 166.209,2.913 166.209 C 3.213 166.209,3.343 166.390,3.343 166.806 C 3.343 167.307,3.456 167.403,4.044 167.403 C 4.631 167.403,4.757 167.510,4.820 168.060 C 4.873 168.520,5.049 168.738,5.410 168.790 C 5.724 168.834,5.983 169.091,6.072 169.447 C 6.176 169.864,6.382 170.030,6.794 170.030 C 7.166 170.030,7.426 170.204,7.527 170.521 C 7.696 171.055,8.528 171.463,9.448 171.463 C 9.905 171.463,10.030 171.587,10.030 172.044 C 10.030 172.500,10.171 172.641,10.687 172.701 C 11.202 172.760,11.359 172.917,11.419 173.433 C 11.478 173.949,11.619 174.090,12.076 174.090 C 12.538 174.090,12.657 174.213,12.657 174.693 C 12.657 175.169,12.804 175.325,13.360 175.436 C 13.840 175.532,14.087 175.739,14.136 176.087 C 14.192 176.478,14.404 176.615,15.045 176.675 C 15.934 176.759,16.716 177.298,16.716 177.828 C 16.716 178.009,16.970 178.149,17.297 178.149 C 17.717 178.149,17.898 178.298,17.954 178.687 C 18.008 179.068,18.216 179.245,18.672 179.298 C 19.168 179.355,19.331 179.518,19.389 180.014 C 19.445 180.499,19.611 180.674,20.067 180.727 C 20.417 180.768,20.770 181.020,20.903 181.324 C 21.069 181.703,21.454 181.912,22.269 182.070 C 23.235 182.257,23.403 182.371,23.403 182.846 C 23.403 183.281,23.534 183.403,24.000 183.403 C 24.358 183.403,24.597 183.539,24.597 183.744 C 24.597 184.364,25.325 184.836,26.281 184.836 C 27.078 184.836,27.237 184.923,27.365 185.433 C 27.471 185.856,27.677 186.030,28.070 186.030 C 28.498 186.030,28.642 186.180,28.701 186.687 C 28.758 187.187,28.920 187.360,29.381 187.414 C 29.731 187.455,30.083 187.706,30.217 188.011 C 30.383 188.389,30.767 188.599,31.582 188.756 C 32.548 188.943,32.716 189.058,32.716 189.533 C 32.716 189.989,32.842 190.090,33.416 190.090 C 33.960 190.090,34.133 190.209,34.192 190.627 C 34.255 191.071,34.486 191.203,35.522 191.387 C 36.610 191.580,36.776 191.683,36.776 192.163 C 36.776 192.593,36.908 192.716,37.369 192.716 C 37.795 192.716,38.001 192.877,38.105 193.291 C 38.253 193.882,38.804 194.140,39.924 194.146 C 40.404 194.148,40.583 194.283,40.640 194.687 C 40.703 195.127,40.889 195.237,41.677 195.295 C 42.433 195.350,42.738 195.516,43.110 196.070 C 43.391 196.490,43.793 196.775,44.103 196.775 C 44.461 196.776,44.647 196.944,44.700 197.313 C 44.763 197.757,44.993 197.889,46.019 198.072 C 47.006 198.247,47.276 198.394,47.332 198.788 C 47.380 199.121,47.608 199.307,48.027 199.356 C 48.408 199.400,48.752 199.649,48.910 199.996 C 49.105 200.424,49.431 200.603,50.236 200.724 C 51.098 200.853,51.331 200.994,51.447 201.457 C 51.575 201.964,51.725 202.030,52.765 202.030 C 53.868 202.030,53.943 202.069,54.014 202.687 C 54.084 203.299,54.174 203.348,55.343 203.415 C 56.350 203.473,56.597 203.570,56.597 203.905 C 56.597 204.599,57.111 204.896,58.316 204.896 C 59.380 204.896,59.463 204.939,59.463 205.493 C 59.463 205.972,59.582 206.090,60.066 206.090 C 60.479 206.090,60.736 206.266,60.883 206.653 C 61.118 207.271,61.923 207.522,63.672 207.522 C 64.627 207.522,64.716 207.574,64.716 208.119 C 64.716 208.621,64.829 208.716,65.417 208.716 C 65.914 208.716,66.162 208.859,66.273 209.208 C 66.450 209.765,67.282 210.149,68.314 210.149 C 68.783 210.149,69.015 210.270,69.015 210.513 C 69.015 211.004,69.991 211.343,71.403 211.343 C 72.493 211.343,72.570 211.384,72.641 212.000 C 72.712 212.622,72.790 212.661,74.090 212.728 C 75.350 212.794,75.463 212.846,75.463 213.360 C 75.463 214.011,75.858 214.209,77.154 214.209 C 77.993 214.209,78.090 214.271,78.090 214.806 C 78.090 215.370,78.161 215.403,79.403 215.403 C 80.629 215.403,80.716 215.441,80.716 215.974 C 80.716 216.673,81.100 216.836,82.748 216.836 C 83.826 216.836,84.098 216.929,84.495 217.433 C 84.885 217.929,85.168 218.030,86.168 218.030 C 87.303 218.030,87.376 218.067,87.447 218.687 C 87.517 219.296,87.609 219.348,88.743 219.414 C 89.749 219.473,90.008 219.582,90.215 220.036 C 90.475 220.609,91.427 220.888,93.137 220.893 C 93.777 220.895,94.032 221.023,94.212 221.433 C 94.420 221.907,94.648 221.978,96.159 222.040 C 97.816 222.107,97.879 222.132,98.117 222.816 C 98.360 223.514,98.385 223.522,100.150 223.522 C 101.821 223.522,101.942 223.557,102.013 224.060 C 102.084 224.560,102.223 224.602,104.045 224.666 C 105.973 224.734,106.001 224.744,106.075 225.383 C 106.145 225.996,106.224 226.034,107.569 226.103 C 108.639 226.158,109.067 226.288,109.307 226.631 C 109.717 227.216,111.042 227.579,112.776 227.581 C 113.964 227.582,114.149 227.643,114.149 228.034 C 114.149 228.635,114.596 228.776,116.500 228.776 C 117.918 228.776,118.122 228.835,118.331 229.306 C 118.644 230.008,119.296 230.157,122.192 230.185 C 124.523 230.208,124.627 230.231,124.700 230.746 C 124.771 231.247,124.910 231.288,126.723 231.353 C 128.536 231.417,128.679 231.460,128.809 231.979 C 128.980 232.658,129.710 232.836,132.328 232.836 C 133.821 232.836,134.209 232.908,134.209 233.186 C 134.209 233.851,135.136 234.030,138.595 234.030 L 142.058 234.030 142.133 234.687 L 142.209 235.343 145.477 235.410 C 148.642 235.474,148.747 235.493,148.820 236.003 C 148.924 236.730,149.878 236.865,155.040 236.882 L 159.274 236.896 159.424 237.493 L 159.574 238.090 164.444 238.090 C 168.613 238.090,169.313 238.141,169.313 238.448 C 169.313 238.764,172.763 238.806,198.925 238.806 C 225.088 238.806,228.537 238.764,228.537 238.448 C 228.537 238.142,229.211 238.090,233.168 238.090 L 237.799 238.090 237.949 237.493 L 238.099 236.896 242.572 236.867 C 247.808 236.834,248.448 236.742,248.553 236.005 C 248.626 235.492,248.728 235.474,251.896 235.410 L 255.164 235.343 255.240 234.687 L 255.315 234.030 258.864 234.030 C 262.420 234.030,263.164 233.862,263.164 233.058 C 263.164 232.936,264.010 232.836,265.045 232.836 C 267.675 232.836,268.393 232.659,268.566 231.970 C 268.701 231.434,268.810 231.403,270.566 231.403 C 272.283 231.403,272.452 231.358,272.814 230.806 C 273.181 230.245,273.331 230.209,275.289 230.206 C 278.386 230.202,279.164 230.031,279.164 229.352 C 279.164 228.820,279.251 228.792,281.134 228.726 C 282.971 228.661,283.110 228.620,283.181 228.119 C 283.252 227.618,283.374 227.582,285.002 227.582 C 287.454 227.582,288.234 227.388,288.490 226.713 C 288.685 226.201,288.846 226.149,290.243 226.149 C 292.161 226.149,292.537 226.008,292.537 225.288 C 292.537 224.740,292.606 224.716,294.192 224.716 C 295.792 224.716,296.597 224.391,296.597 223.744 C 296.597 223.622,297.215 223.512,297.970 223.499 C 299.871 223.466,300.522 223.248,300.614 222.617 C 300.682 222.147,300.831 222.090,301.987 222.090 C 303.211 222.090,303.284 222.056,303.284 221.493 C 303.284 220.916,303.338 220.896,304.852 220.896 C 306.623 220.896,307.343 220.617,307.343 219.932 C 307.343 219.523,307.510 219.463,308.641 219.463 C 310.293 219.463,311.164 219.139,311.164 218.525 C 311.164 218.119,311.353 218.044,312.537 217.982 C 313.730 217.920,313.920 217.844,313.983 217.401 C 314.046 216.958,314.247 216.878,315.513 216.786 C 316.728 216.698,317.052 216.577,317.470 216.056 C 317.868 215.559,318.214 215.417,319.164 215.358 C 320.194 215.294,320.369 215.210,320.435 214.746 C 320.496 214.311,320.663 214.209,321.314 214.209 C 322.501 214.209,323.343 213.820,323.343 213.272 C 323.343 212.872,323.533 212.790,324.597 212.729 C 325.766 212.662,325.856 212.613,325.926 212.000 C 325.998 211.373,326.061 211.343,327.299 211.343 C 328.524 211.343,328.597 211.310,328.597 210.746 C 328.597 210.182,328.669 210.149,329.910 210.149 C 331.206 210.149,331.224 210.139,331.224 209.445 C 331.224 208.755,331.252 208.739,332.597 208.669 C 333.813 208.605,333.979 208.536,334.046 208.060 C 334.112 207.599,334.267 207.522,335.133 207.522 C 336.212 207.522,336.716 207.207,336.716 206.532 C 336.716 206.197,336.963 206.100,337.970 206.042 C 339.032 205.981,339.235 205.894,339.295 205.471 C 339.351 205.083,339.619 204.923,340.489 204.754 C 341.293 204.599,341.678 204.388,341.843 204.011 C 341.977 203.706,342.329 203.455,342.679 203.414 C 343.139 203.360,343.302 203.187,343.359 202.687 C 343.431 202.060,343.494 202.030,344.732 202.030 C 345.957 202.030,346.030 201.996,346.030 201.433 C 346.030 200.908,346.132 200.836,346.881 200.836 C 347.966 200.836,348.657 200.467,348.657 199.888 C 348.657 199.571,348.854 199.412,349.313 199.359 C 349.784 199.305,349.992 199.131,350.046 198.746 C 350.109 198.306,350.274 198.209,350.958 198.209 C 352.036 198.209,352.716 197.836,352.716 197.245 C 352.716 196.908,352.879 196.776,353.295 196.776 C 353.620 196.776,354.188 196.462,354.590 196.060 C 355.013 195.637,355.557 195.343,355.917 195.343 C 356.370 195.343,356.567 195.188,356.678 194.746 C 356.786 194.318,356.989 194.149,357.399 194.149 C 357.874 194.149,357.970 194.029,357.970 193.433 C 357.970 192.724,357.983 192.716,359.284 192.716 C 360.516 192.716,360.597 192.680,360.597 192.135 C 360.597 191.679,360.738 191.538,361.254 191.479 C 361.770 191.419,361.927 191.262,361.986 190.746 C 362.045 190.237,362.188 190.090,362.624 190.090 C 363.347 190.090,364.657 188.786,364.657 188.067 C 364.657 187.685,364.831 187.471,365.223 187.372 C 366.513 187.049,366.517 180.776,365.228 180.776 C 364.714 180.776,364.657 180.673,364.657 179.749 C 364.657 178.462,364.347 178.149,363.073 178.149 C 362.147 178.149,362.055 178.094,361.986 177.493 L 361.910 176.836 358.131 176.770 L 354.351 176.704 354.082 177.417 C 353.822 178.105,353.754 178.133,352.130 178.199 C 350.649 178.260,350.420 178.333,350.212 178.806 C 350.043 179.191,349.772 179.344,349.257 179.347 C 347.966 179.352,347.463 179.594,347.463 180.207 C 347.463 180.736,347.373 180.776,346.175 180.776 C 345.073 180.776,344.775 180.880,344.119 181.493 C 343.464 182.105,343.166 182.209,342.064 182.209 C 340.849 182.209,340.776 182.243,340.776 182.806 C 340.776 183.385,340.727 183.403,339.124 183.403 C 337.090 183.403,336.716 183.536,336.716 184.264 C 336.716 184.816,336.656 184.836,334.920 184.836 C 333.236 184.836,333.107 184.873,332.852 185.433 C 332.625 185.931,332.415 186.030,331.579 186.030 C 330.243 186.030,329.127 186.444,328.949 187.005 C 328.829 187.383,328.575 187.463,327.488 187.463 C 326.348 187.463,326.078 187.557,325.465 188.170 C 324.813 188.822,324.608 188.882,322.797 188.946 C 320.969 189.010,320.831 189.052,320.760 189.552 C 320.692 190.024,320.544 190.090,319.536 190.090 C 317.656 190.090,316.952 190.311,316.791 190.951 C 316.656 191.490,316.547 191.522,314.845 191.522 C 313.054 191.522,312.174 191.775,311.809 192.393 C 311.690 192.594,311.182 192.716,310.466 192.716 C 308.659 192.716,307.807 192.962,307.534 193.563 C 307.309 194.056,307.098 194.111,305.145 194.186 C 303.309 194.257,302.944 194.341,302.593 194.774 C 302.259 195.187,301.808 195.310,300.107 195.452 C 298.119 195.618,298.030 195.650,298.030 196.201 C 298.030 196.768,297.998 196.776,295.781 196.776 C 293.134 196.776,292.776 196.878,292.776 197.631 C 292.776 198.194,292.767 198.196,289.493 198.262 C 286.292 198.327,286.207 198.342,286.133 198.866 C 286.059 199.381,285.962 199.403,283.702 199.403 C 281.286 199.403,280.597 199.645,280.597 200.495 C 280.597 200.773,280.010 200.836,277.389 200.836 C 274.063 200.836,272.955 201.043,272.955 201.666 C 272.955 201.969,272.505 202.035,270.269 202.058 C 266.843 202.094,266.172 202.233,266.073 202.927 C 265.998 203.452,265.930 203.463,262.805 203.463 C 259.392 203.463,258.415 203.667,258.218 204.421 C 258.098 204.877,257.882 204.896,252.613 204.896 C 247.138 204.896,246.209 205.018,246.209 205.740 C 246.209 206.036,245.443 206.090,241.230 206.090 C 236.060 206.090,234.931 206.254,234.494 207.070 C 234.258 207.510,233.437 207.522,203.448 207.522 L 172.645 207.522 172.431 206.959 C 172.132 206.173,171.479 206.090,165.639 206.090 C 160.633 206.090,160.589 206.085,160.355 205.552 C 160.121 205.019,160.076 205.014,154.343 204.951 C 148.767 204.889,148.561 204.870,148.412 204.400 C 148.171 203.639,147.317 203.463,143.882 203.463 C 140.759 203.463,140.688 203.451,140.614 202.929 C 140.517 202.253,139.559 202.063,136.158 202.044 C 133.894 202.031,133.652 201.985,133.254 201.493 C 132.845 200.987,132.613 200.951,129.335 200.878 C 126.066 200.805,125.851 200.772,125.851 200.335 C 125.851 199.658,124.935 199.403,122.504 199.403 C 120.973 199.403,120.329 199.313,120.191 199.080 C 119.779 198.383,118.913 198.209,115.852 198.209 L 112.748 198.209 112.673 197.552 C 112.598 196.902,112.577 196.895,110.650 196.827 C 108.826 196.762,108.695 196.722,108.561 196.190 C 108.426 195.649,108.295 195.614,105.792 195.452 C 103.784 195.322,103.164 195.203,103.164 194.948 C 103.164 194.415,102.088 194.149,99.925 194.149 C 97.962 194.149,97.910 194.135,97.910 193.580 C 97.910 192.891,97.417 192.724,95.360 192.720 C 94.012 192.717,93.877 192.670,93.808 192.179 C 93.735 191.665,93.620 191.639,91.179 191.574 L 88.627 191.507 88.552 190.858 C 88.479 190.221,88.443 190.208,86.629 190.139 C 84.890 190.074,84.771 190.035,84.633 189.483 C 84.491 188.918,84.409 188.896,82.509 188.896 C 80.738 188.896,80.520 188.846,80.409 188.421 C 80.250 187.813,79.320 187.463,77.861 187.463 C 76.848 187.463,76.691 187.394,76.567 186.897 C 76.413 186.287,75.568 186.038,73.629 186.032 C 72.776 186.030,72.619 185.951,72.554 185.493 C 72.483 184.996,72.339 184.950,70.647 184.886 C 68.864 184.818,68.810 184.798,68.574 184.121 C 68.342 183.456,68.261 183.422,66.703 183.355 C 65.279 183.292,65.045 183.216,64.839 182.746 C 64.634 182.278,64.425 182.209,63.227 182.209 C 62.004 182.209,61.851 182.155,61.851 181.725 C 61.851 181.099,60.993 180.776,59.328 180.776 C 58.121 180.776,58.030 180.736,58.030 180.209 C 58.030 179.613,57.356 179.343,55.867 179.343 C 55.354 179.343,55.180 179.217,55.121 178.806 C 55.051 178.309,54.906 178.263,53.209 178.199 C 51.410 178.131,51.372 178.117,51.299 177.483 C 51.229 176.884,51.133 176.831,49.993 176.764 C 48.914 176.702,48.744 176.621,48.615 176.108 C 48.475 175.548,48.386 175.522,46.563 175.522 L 44.657 175.522 44.657 174.806 C 44.657 174.097,44.643 174.090,43.343 174.090 C 42.118 174.090,42.030 174.051,42.030 173.520 C 42.030 173.010,41.895 172.934,40.739 172.789 C 39.633 172.651,39.427 172.544,39.301 172.045 C 39.171 171.527,39.026 171.463,37.982 171.463 C 36.974 171.463,36.785 171.387,36.641 170.925 C 36.413 170.196,36.112 170.038,34.942 170.034 C 34.090 170.030,33.932 169.951,33.867 169.493 C 33.801 169.024,33.630 168.946,32.537 168.883 C 31.487 168.823,31.284 168.737,31.284 168.354 C 31.284 167.775,30.596 167.403,29.525 167.403 C 28.841 167.403,28.676 167.306,28.614 166.866 C 28.547 166.398,28.376 166.319,27.284 166.256 C 26.512 166.212,26.028 166.074,26.026 165.898 C 26.018 165.257,25.526 164.914,24.435 164.789 C 23.496 164.681,23.270 164.564,23.211 164.151 C 23.153 163.743,22.898 163.604,21.898 163.434 C 20.870 163.260,20.644 163.132,20.580 162.687 C 20.512 162.206,20.370 162.149,19.223 162.149 C 18.003 162.149,17.939 162.118,17.867 161.493 C 17.796 160.880,17.707 160.831,16.537 160.764 C 15.386 160.697,15.284 160.644,15.284 160.107 C 15.284 159.558,15.204 159.522,13.970 159.522 C 12.670 159.522,12.657 159.515,12.657 158.806 C 12.657 158.183,12.571 158.090,11.997 158.090 C 11.542 158.090,11.264 157.923,11.101 157.553 C 10.929 157.161,10.564 156.961,9.745 156.813 C 8.858 156.652,8.609 156.503,8.551 156.096 C 8.480 155.597,8.363 155.580,4.597 155.516 L 0.716 155.451 0.716 156.054 " stroke="none" fill="#000000" fill-rule="evenodd"></path></g></svg>